<?xml version="1.0" standalone="no"?>
<!DOCTYPE svg PUBLIC "-//W3C//DTD SVG 1.1//EN" "http://www.w3.org/Graphics/SVG/1.1/DTD/svg11.dtd" >
<svg xmlns="http://www.w3.org/2000/svg">
<metadata></metadata>
<defs>
<font id="gotham_pro_narrowmedium" horiz-adv-x="1024" >
<font-face units-per-em="2048" ascent="1638" descent="-410" />
<missing-glyph horiz-adv-x="526" />
<glyph unicode="&#xfb01;" horiz-adv-x="1202" d="M63 887v194h119v82q0 162 80 244t227 82q98 0 166 -23v-194q-55 18 -112 18q-131 0 -131 -149v-62h241v-192h-239v-887h-232v887h-119zM817 1243v227h246v-227h-246zM823 0v1085h234v-1085h-234z" />
<glyph unicode="&#xfb02;" horiz-adv-x="1202" d="M63 887v194h119v82q0 162 80 244t227 82q98 0 166 -23v-194q-55 18 -112 18q-131 0 -131 -149v-62h241v-192h-239v-887h-232v887h-119zM823 0v1479h234v-1479h-234z" />
<glyph unicode="&#xfb03;" horiz-adv-x="1875" d="M61 887v192h121v84q0 162 80 244t227 82q96 0 164 -23v-196q-57 20 -110 20q-131 0 -131 -149v-64h239v-190h-237v-887h-232v887h-121zM739 887v192h121v84q0 326 307 326q96 0 164 -23v-196q-57 20 -112 20q-131 0 -132 -149v-64h242v-190h-239v-887h-230v887h-121z M1491 1243v227h246v-227h-246zM1499 0v1085h232v-1085h-232z" />
<glyph unicode="&#xfb04;" horiz-adv-x="1875" d="M61 887v192h121v84q0 162 80 244t227 82q96 0 164 -23v-196q-57 20 -110 20q-131 0 -131 -149v-64h239v-190h-237v-887h-232v887h-121zM739 887v192h121v84q0 326 307 326q96 0 164 -23v-196q-57 20 -112 20q-131 0 -132 -149v-64h242v-190h-239v-887h-230v887h-121z M1499 0v1479h232v-1479h-232z" />
<glyph horiz-adv-x="0" />
<glyph unicode="&#xd;" horiz-adv-x="681" />
<glyph unicode=" "  horiz-adv-x="526" />
<glyph unicode="&#x09;" horiz-adv-x="526" />
<glyph unicode="&#xa0;" horiz-adv-x="526" />
<glyph unicode="!" horiz-adv-x="567" d="M147 1362v72h275v-72l-76 -918h-125zM154 0v270h260v-270h-260z" />
<glyph unicode="&#x22;" horiz-adv-x="890" d="M115 823l35 611h256v-13l-179 -598h-112zM520 823l31 611h258v-13l-178 -598h-111z" />
<glyph unicode="#" horiz-adv-x="1239" d="M68 336v201h190l53 368h-180v201h211l47 328h193l-47 -328h282l45 328h193l-47 -328h161v-201h-192l-51 -368h182v-201h-213l-47 -336h-193l47 336h-280l-49 -336h-193l49 336h-161zM453 537h280l53 368h-282z" />
<glyph unicode="$" horiz-adv-x="1134" d="M92 160l92 192q172 -131 330 -149v420q-205 80 -297 175t-92 255v2q0 156 102.5 258t268.5 123v125h163v-125q172 -18 328 -127l-82 -197q-141 96 -264 117v-400q225 -94 311 -190t86 -252v-2q0 -156 -105.5 -259t-273.5 -126v-205h-163v205q-221 20 -404 160zM344 1069 q0 -68 36 -109.5t134 -82.5v354q-84 -10 -127 -53t-43 -109zM641 201q180 25 180 174v2q0 68 -39 113t-141 88v-377z" />
<glyph unicode="%" horiz-adv-x="1556" d="M86 1071v16q0 156 85 258.5t220 102.5q133 0 218 -102.5t85 -255.5v-15q0 -156 -85 -258t-220 -102q-133 0 -218 101.5t-85 254.5zM223 0l930 1434h180l-930 -1434h-180zM256 1075q0 -94 38 -151.5t97 -57.5q61 0 97 56.5t36 150.5v12q0 94 -37.5 152.5t-97.5 58.5 q-61 0 -97 -56t-36 -150v-15zM862 344v14q0 156 85 258.5t220 102.5q133 0 218 -101.5t85 -255.5v-16q0 -156 -86 -258t-221 -102q-133 0 -217 101t-84 257zM1032 348q0 -94 38 -152.5t97 -58.5q61 0 97 56.5t36 150.5v14q0 94 -37.5 151.5t-99.5 57.5q-59 0 -95 -56 t-36 -151v-12z" />
<glyph unicode="&#x26;" horiz-adv-x="1261" d="M66 379v6q0 260 282 412q-121 172 -121 311v6q0 141 102.5 241.5t270.5 100.5q154 0 250 -94t96 -236v-6q0 -242 -284 -379l221 -264q61 106 121 262l180 -77q-72 -197 -166 -343l196 -225l-174 -121l-157 183q-172 -176 -389 -176q-184 0 -306 110.5t-122 288.5z M303 389q0 -92 60.5 -151.5t154.5 -59.5q123 0 238 121l-285 346q-168 -94 -168 -250v-6zM442 1102q0 -92 103 -225q192 92 192 231v8q0 68 -40 110t-103 42q-68 0 -110 -45t-42 -113v-8z" />
<glyph unicode="'" horiz-adv-x="487" d="M115 823l35 611h258v-13l-179 -598h-114z" />
<glyph unicode="(" horiz-adv-x="804" d="M117 590q0 606 528 874l76 -159q-375 -248 -375 -715q0 -240 92.5 -415t282.5 -304l-76 -158q-528 266 -528 877z" />
<glyph unicode=")" horiz-adv-x="804" d="M84 -129q193 129 284 303t91 416q0 469 -375 715l76 159q528 -268 528 -874q0 -612 -528 -877z" />
<glyph unicode="*" horiz-adv-x="798" d="M96 1020l219 96l-219 96l72 125l190 -145l-30 244h143l-31 -244l191 145l71 -125l-219 -96l219 -96l-71 -123l-191 145l31 -243h-143l30 243l-190 -145z" />
<glyph unicode="+" horiz-adv-x="1181" d="M117 614v213h362v373h221v-373h363v-213h-363v-372h-221v372h-362z" />
<glyph unicode="," horiz-adv-x="509" d="M63 -197q180 35 166 197h-106v270h262v-227q0 -160 -74.5 -242t-224.5 -98z" />
<glyph unicode="-" horiz-adv-x="780" d="M104 512v229h570v-229h-570z" />
<glyph unicode="." horiz-adv-x="509" d="M123 0v270h262v-270h-262z" />
<glyph unicode="/" horiz-adv-x="929" d="M-39 -244l780 1860h199l-780 -1860h-199z" />
<glyph unicode="0" horiz-adv-x="1277" d="M102 705v22q0 330 146.5 529.5t390.5 199.5q246 0 391.5 -199.5t145.5 -527.5v-22q0 -328 -146.5 -529t-392.5 -201q-244 0 -389.5 199t-145.5 529zM344 709q0 -242 80 -380.5t215 -138.5t215 137.5t80 377.5v20q0 240 -81 379t-216 139t-214 -136t-79 -378v-20z" />
<glyph unicode="1" horiz-adv-x="716" d="M49 1333l330 109h168v-1442h-236v1196l-225 -68z" />
<glyph unicode="2" horiz-adv-x="1079" d="M86 0v188l426 474q123 129 170 207.5t47 162.5q0 92 -57.5 147.5t-147.5 55.5q-84 0 -150.5 -41t-140.5 -129l-124 160q92 115 192 170t246 55q193 0 308.5 -107.5t115.5 -285.5v-6q0 -135 -64.5 -239.5t-230.5 -266.5l-277 -330h582v-215h-895z" />
<glyph unicode="3" horiz-adv-x="1085" d="M74 166l123 172q139 -143 317 -143q100 0 167 62t67 163v8q0 111 -82 168t-230 61h-80l-30 150l346 414h-539v213h832v-185l-357 -415q166 -27 269.5 -122.5t103.5 -271.5v-10q0 -199 -129 -324.5t-334 -125.5q-272 0 -444 186z" />
<glyph unicode="4" horiz-adv-x="1208" d="M63 483l674 959h209v-936h178v-197h-178v-309h-225v309h-627zM322 506h399v584z" />
<glyph unicode="5" horiz-adv-x="1097" d="M90 143l109 187q152 -131 307 -131q117 0 187.5 69.5t70.5 186.5v8q0 115 -69.5 177t-186.5 62q-111 0 -217 -53l-137 92l39 693h745v-215h-549l-20 -340q88 33 190 32q193 0 315.5 -111.5t122.5 -330.5v-8q0 -219 -133 -350t-352 -131q-244 0 -422 163z" />
<glyph unicode="6" horiz-adv-x="1167" d="M104 664v12q0 367 142.5 572.5t404.5 205.5q195 0 355 -121l-97 -196q-129 102 -260 102q-139 0 -220 -123t-85 -332q121 131 297 131q184 0 306 -115.5t122 -326.5v-8q0 -215 -133 -351.5t-336 -136.5q-205 0 -330 125q-84 84 -125 214t-41 348zM350 453 q0 -123 67.5 -196t180.5 -73q111 0 175.5 74t64.5 197v8q0 117 -66.5 185.5t-175.5 68.5q-113 0 -178 -70q-68 -68 -68 -184v-10z" />
<glyph unicode="7" horiz-adv-x="1067" d="M111 1219v215h866v-177l-535 -1257h-256l533 1219h-608z" />
<glyph unicode="8" horiz-adv-x="1126" d="M84 389v8q0 244 231 351q-190 109 -190 317v8q0 166 125 273.5t311 107.5q188 0 313 -107.5t125 -273.5v-8q0 -211 -190 -317q231 -111 231 -347v-8q0 -188 -134 -300.5t-345 -112.5q-207 0 -342 112.5t-135 296.5zM315 403q0 -102 65.5 -164.5t180.5 -62.5t181.5 62.5 t66.5 164.5v9q0 104 -69.5 164.5t-178.5 60.5q-106 0 -176 -60.5t-70 -164.5v-9zM350 1047q0 -96 59.5 -159t151.5 -63q94 0 153.5 60.5t59.5 158.5v7q0 92 -58.5 150.5t-154.5 58.5q-94 0 -152.5 -57.5t-58.5 -149.5v-6z" />
<glyph unicode="9" horiz-adv-x="1167" d="M100 952v11q0 217 132.5 355t337 138t329.5 -125q168 -168 168 -561v-12q0 -369 -145.5 -573.5t-403.5 -204.5q-201 0 -375 129l97 196q139 -111 278 -110.5t220 121t85 323.5q-115 -135 -293 -135q-188 0 -309 117.5t-121 330.5zM334 965q0 -121 66.5 -192t172.5 -71 q102 0 175 68q71 72 71 195v10q0 125 -67.5 199.5t-180.5 74.5q-111 0 -174 -75.5t-63 -200.5v-8z" />
<glyph unicode=":" horiz-adv-x="530" d="M133 0v270h262v-270h-262zM133 813v272h262v-272h-262z" />
<glyph unicode=";" horiz-adv-x="530" d="M74 -197q180 35 166 197h-107v270h262v-227q0 -160 -74.5 -242t-224.5 -98zM133 813v272h262v-272h-262z" />
<glyph unicode="&#x3c;" horiz-adv-x="1138" d="M119 610v221l862 441v-236l-637 -313l637 -315v-238z" />
<glyph unicode="=" horiz-adv-x="1208" d="M156 365v219h897v-219h-897zM156 858v219h897v-219h-897z" />
<glyph unicode="&#x3e;" horiz-adv-x="1138" d="M158 170v236l637 313l-637 315v238l860 -441v-221z" />
<glyph unicode="?" horiz-adv-x="970" d="M49 1274q172 176 410 176q197 0 317.5 -109.5t120.5 -289.5v-9q0 -315 -362 -401l-21 -197h-156l-32 340l8 11q330 31 330 241v4q0 86 -59.5 139.5t-160.5 53.5q-156 0 -288 -127zM305 0v270h262v-270h-262z" />
<glyph unicode="@" horiz-adv-x="1798" d="M96 524q0 248 106.5 461t298 342t425.5 129q328 0 551 -224.5t223 -531.5q0 -252 -107.5 -406.5t-269.5 -154.5q-205 0 -268 156q-121 -154 -287 -154q-133 0 -222 94.5t-89 249.5q0 223 127 387t290 164q168 0 248 -151l25 127l188 -33l-92 -516q-10 -45 -10 -104.5 t35 -94.5t96 -35q106 0 180 132.5t74 340.5q0 272 -198.5 475t-495.5 203q-319 0 -533.5 -255t-214.5 -603q-2 -332 203 -547t522 -215q238 0 442 121l39 -61q-225 -135 -483 -135q-346 0 -574.5 237.5t-228.5 601.5zM653 498q0 -90 48.5 -141.5t126 -51.5t145 69.5 t92.5 176.5q14 60 14 121q0 88 -48 141t-126 53t-143.5 -64.5t-89.5 -168.5q-18 -84 -19 -135z" />
<glyph unicode="A" horiz-adv-x="1380" d="M51 0l524 1442h230l524 -1442h-246l-120 338h-553l-121 -338h-238zM481 549h408l-203 575z" />
<glyph unicode="B" horiz-adv-x="1275" d="M158 0v1434h510q209 0 334.5 -98.5t125.5 -272.5q0 -223 -210 -322q272 -96 272 -342q0 -190 -138.5 -294.5t-371.5 -104.5h-522zM389 211h299q125 0 195.5 53t70.5 151.5t-71.5 153t-206.5 54.5h-287v-412zM389 823h248q119 0 187.5 52.5t68.5 150.5q0 94 -63.5 145.5 t-178.5 51.5h-262v-400z" />
<glyph unicode="C" horiz-adv-x="1263" d="M102 707v18q0 322 180.5 525.5t458.5 203.5q256 0 439 -166l-113 -192q-158 137 -322 137q-174 0 -284.5 -138.5t-110.5 -367.5v-18q0 -231 110.5 -369.5t287.5 -138.5q96 0 170.5 34.5t158.5 108.5l113 -174q-195 -190 -461 -190q-270 0 -448.5 202.5t-178.5 524.5z" />
<glyph unicode="D" horiz-adv-x="1376" d="M158 0v1434h436q303 0 491.5 -196t188.5 -511v-18q0 -315 -188.5 -512t-491.5 -197h-436zM393 215h207q193 0 310.5 131t117.5 361v18q0 227 -117.5 360.5t-310.5 133.5h-207v-1004z" />
<glyph unicode="E" horiz-adv-x="1163" d="M158 0v1434h901v-215h-666v-390h590v-215h-590v-399h674v-215h-909z" />
<glyph unicode="F" horiz-adv-x="1132" d="M158 0v1434h895v-220h-660v-403h586v-217h-586v-594h-235z" />
<glyph unicode="G" horiz-adv-x="1372" d="M102 707v18q0 315 185.5 522t470.5 207q256 0 442 -147l-110 -199q-154 125 -336 125q-174 0 -289 -142.5t-115 -361.5v-20q0 -238 115 -375t301 -137q143 0 256 75v316h-303v209h526v-643q-217 -174 -487 -174q-291 0 -473.5 199.5t-182.5 527.5z" />
<glyph unicode="H" horiz-adv-x="1349" d="M158 0v1434h235v-603h563v603h236v-1434h-236v610h-563v-610h-235z" />
<glyph unicode="I" horiz-adv-x="575" d="M168 0v1434h238v-1434h-238z" />
<glyph unicode="J" horiz-adv-x="972" d="M43 147l115 183q102 -125 235 -125q92 0 145.5 61.5t53.5 179.5v988h244v-996q0 -223 -116.5 -339.5t-313.5 -116.5q-223 0 -363 165z" />
<glyph unicode="K" horiz-adv-x="1284" d="M158 0v1434h235v-703l553 703h287l-498 -617l520 -817h-282l-402 627l-178 -213v-414h-235z" />
<glyph unicode="L" horiz-adv-x="1069" d="M158 0v1434h235v-1215h615v-219h-850z" />
<glyph unicode="M" horiz-adv-x="1542" d="M158 0v1434h248l364 -658l367 658h249v-1434h-233v1014l-381 -664h-6l-379 660v-1010h-229z" />
<glyph unicode="N" horiz-adv-x="1394" d="M158 0v1434h219l629 -955v955h233v-1434h-203l-647 985v-985h-231z" />
<glyph unicode="O" horiz-adv-x="1474" d="M102 705v20q0 319 178.5 525t458.5 206q279 0 455 -203.5t176 -523.5v-20q0 -319 -178 -525.5t-456.5 -206.5t-456 204t-177.5 524zM350 709q0 -231 108.5 -371.5t280.5 -140.5t279.5 139t107.5 369v20q0 231 -109.5 371.5t-281.5 140.5q-170 0 -277.5 -139.5 t-107.5 -368.5v-20z" />
<glyph unicode="P" horiz-adv-x="1191" d="M158 0v1434h456q236 0 375 -128t139 -352q0 -231 -148.5 -360t-381.5 -129h-205v-465h-235zM393 680h211q131 0 209 72.5t78 195.5q0 133 -76 202t-209 69h-213v-539z" />
<glyph unicode="Q" horiz-adv-x="1476" d="M102 705v20q0 319 178.5 525t458.5 206q279 0 455 -203.5t176 -523.5v-20q0 -266 -125 -455l152 -135l-146 -160l-149 141q-154 -123 -367 -123q-279 0 -456 204t-177 524zM350 709q0 -236 108.5 -375t284.5 -139q109 0 195 57l-213 188l145 160l195 -182q61 119 61 287 v20q0 231 -109.5 371.5t-281.5 140.5q-170 0 -277.5 -139.5t-107.5 -368.5v-20z" />
<glyph unicode="R" horiz-adv-x="1280" d="M158 0v1434h514q233 0 368.5 -120t135.5 -337q0 -160 -80 -266.5t-217 -155.5l335 -555h-274l-303 506h-78h-166v-506h-235zM393 717h269q127 0 200.5 66.5t73.5 189.5q0 121 -74 183.5t-205 62.5h-264v-502z" />
<glyph unicode="S" horiz-adv-x="1120" d="M78 162l106 188q192 -153 384 -153h3q100 0 161 46t61 128q0 74 -54.5 125t-218.5 120q-221 94 -313 184.5t-92 256.5q0 174 125 284.5t317 110.5q242 0 428 -139l-94 -199q-176 123 -334 123q-94 0 -149.5 -46t-55.5 -118q0 -78 55.5 -127t227.5 -121q215 -92 305 -186 t90 -252q0 -186 -128 -295.5t-329 -109.5q-279 0 -495 180z" />
<glyph unicode="T" horiz-adv-x="1124" d="M68 1212v222h989v-222h-375v-1212h-238v1212h-376z" />
<glyph unicode="U" horiz-adv-x="1341" d="M139 547v887h236v-887q0 -170 78.5 -260t218 -90t217.5 88t78 256v893h235v-881q0 -281 -143.5 -427t-389 -146t-388 145t-142.5 422z" />
<glyph unicode="V" horiz-adv-x="1310" d="M51 1434h256l352 -1084l353 1084h250l-498 -1442h-219z" />
<glyph unicode="W" horiz-adv-x="1968" d="M61 1434h252l279 -1041l293 1043h205l292 -1043l279 1041h246l-418 -1442h-213l-293 1012l-293 -1012h-213z" />
<glyph unicode="X" horiz-adv-x="1280" d="M61 0l439 733l-420 701h270l293 -498l293 498h264l-418 -699l437 -735h-271l-311 532l-311 -532h-265z" />
<glyph unicode="Y" horiz-adv-x="1257" d="M29 1434h270l332 -619l334 619h262l-479 -861v-573h-238v571z" />
<glyph unicode="Z" horiz-adv-x="1216" d="M109 0v176l704 1047h-680v211h977v-177l-704 -1046h704v-211h-1001z" />
<glyph unicode="[" horiz-adv-x="823" d="M168 -266v1700h551v-177h-332v-1347h332v-176h-551z" />
<glyph unicode="\" horiz-adv-x="929" d="M-12 1616h200l779 -1860h-199z" />
<glyph unicode="]" horiz-adv-x="823" d="M104 -90h332v1347h-332v177h551v-1700h-551v176z" />
<glyph unicode="^" horiz-adv-x="989" d="M147 1022l263 408h170l262 -408h-174l-174 264l-177 -264h-170z" />
<glyph unicode="_" horiz-adv-x="1140" d="M-2 -143h1145v-181h-1145v181z" />
<glyph unicode="`" horiz-adv-x="1028" d="M279 1454l204 94l205 -334h-170z" />
<glyph unicode="a" horiz-adv-x="1056" d="M70 309v13q0 170 105.5 259t283.5 89q133 0 250 -43v43q0 223 -238 223q-125 0 -272 -62l-45 191q164 76 352 76q211 0 320.5 -108.5t109.5 -315.5v-674h-227v133q-113 -153 -303 -153q-141 0 -238.5 89t-97.5 240zM297 322q0 -80 49 -124t129 -44q102 0 169 58t67 150 v111q-88 39 -203 39q-100 0 -155.5 -47t-55.5 -131v-12z" />
<glyph unicode="b" horiz-adv-x="1196" d="M133 0v1479h232v-568q125 195 317 195q178 0 302 -144.5t124 -404.5v-29q0 -260 -124 -404t-302 -144q-184 0 -317 184v-164h-232zM362 530q0 -156 75 -251t183.5 -95t182.5 94.5t74 251.5v23q0 158 -74 253t-182.5 95t-183.5 -96t-75 -252v-23z" />
<glyph unicode="c" horiz-adv-x="995" d="M84 530v19q0 242 141.5 398.5t354.5 156.5q205 0 344 -139l-107 -177q-113 109 -233 109q-115 0 -191 -95t-76 -249v-21q0 -158 77 -252t200 -94q121 0 233 107l103 -162q-150 -154 -355 -154q-213 0 -352 156t-139 397z" />
<glyph unicode="d" horiz-adv-x="1196" d="M88 528v27q0 260 124 405.5t302 145.5q188 0 317 -184v557h232v-1479h-232v174q-124 -194 -317 -194q-176 0 -301 144t-125 404zM322 532q0 -158 73.5 -253t182.5 -95q106 0 182 95.5t76 250.5v23q0 156 -76 252t-182 96q-111 0 -183.5 -94t-72.5 -254v-21z" />
<glyph unicode="e" horiz-adv-x="1083" d="M82 530v17q0 244 132 400.5t335 156.5q215 0 333.5 -159t118.5 -410q0 -55 -2 -82h-684q16 -135 91 -207t184 -72q143 0 262 113l109 -146q-154 -164 -379 -164q-215 0 -357.5 152t-142.5 401zM313 614h461q-8 133 -67.5 215t-157.5 82q-96 0 -160 -79t-76 -218z" />
<glyph unicode="f" horiz-adv-x="679" d="M63 887v192h119v84q0 162 80 244t227 82q98 0 166 -23v-194q-55 18 -112 18q-131 0 -131 -149v-62h241v-192h-239v-887h-232v887h-119z" />
<glyph unicode="g" horiz-adv-x="1196" d="M88 588v8q0 240 122 375t296 135q190 0 325 -182v161h232v-907q0 -491 -516 -491q-217 0 -408 100l64 186q172 -94 336 -94q295 0 295 287v104q-136 -192 -326 -192h-2q-174 0 -296 135t-122 375zM322 590q0 -139 72.5 -224t178.5 -85q111 0 187 85t76 224q0 141 -76 227 t-187 86q-109 0 -180 -85t-71 -228z" />
<glyph unicode="h" horiz-adv-x="1122" d="M133 0v1479h232v-553q119 180 297 180q160 0 248.5 -103.5t88.5 -277.5v-725h-233v662q0 113 -50 174t-143 61q-94 0 -151 -65.5t-57 -176.5v-655h-232z" />
<glyph unicode="i" horiz-adv-x="522" d="M139 1243v227h246v-227h-246zM143 0v1085h234v-1085h-234z" />
<glyph unicode="j" horiz-adv-x="526" d="M-20 -119q29 -6 55 -6q113 0 112 129v1081h232v-1099q0 -301 -293 -301q-49 0 -106 10v186zM139 1243v227h248v-227h-248z" />
<glyph unicode="k" horiz-adv-x="1050" d="M133 0v1479h232v-873l374 479h275l-361 -442l371 -643h-266l-266 465l-127 -154v-311h-232z" />
<glyph unicode="l" horiz-adv-x="522" d="M143 0v1479h234v-1479h-234z" />
<glyph unicode="m" horiz-adv-x="1720" d="M133 0v1085h232v-157q117 178 292 178q197 0 283 -176q129 176 317 176q154 0 245 -100.5t91 -278.5v-727h-233v662q0 113 -48 174t-134 61q-90 0 -144.5 -63.5t-54.5 -176.5v-657h-231v662q0 113 -48.5 174t-138.5 61q-88 0 -142 -65.5t-54 -176.5v-655h-232z" />
<glyph unicode="n" horiz-adv-x="1122" d="M133 0v1085h232v-159q119 180 297 180q160 0 248.5 -103.5t88.5 -277.5v-725h-233v662q0 113 -50 174t-143 61q-94 0 -151 -65.5t-57 -176.5v-655h-232z" />
<glyph unicode="o" horiz-adv-x="1173" d="M84 530v19q0 240 143.5 397.5t360.5 157.5q215 0 357 -156.5t142 -396.5v-19q0 -240 -143 -397.5t-360 -157.5q-215 0 -357.5 157t-142.5 396zM315 532q0 -152 77 -252t196 -100q121 0 194.5 98.5t73.5 249.5v21q0 154 -77 253t-195 99q-121 0 -195 -97t-74 -251v-21z " />
<glyph unicode="p" horiz-adv-x="1196" d="M133 -309v1394h232v-174q125 195 317 195q178 0 302 -144.5t124 -404.5v-29q0 -260 -124 -404t-302 -144q-184 0 -317 184v-473h-232zM362 530q0 -156 75 -251t183.5 -95t182.5 94.5t74 251.5v23q0 158 -74 253t-182.5 95t-183.5 -96t-75 -252v-23z" />
<glyph unicode="q" horiz-adv-x="1196" d="M88 528v27q0 260 124 405.5t302 145.5q188 0 317 -184v163h232v-1394h-232v483q-124 -194 -315 -194h-2q-176 0 -301 144t-125 404zM322 532q0 -158 73.5 -253t182.5 -95q106 0 182 95.5t76 250.5v23q0 156 -76 252t-182 96q-111 0 -183.5 -94t-72.5 -254v-21z" />
<glyph unicode="r" horiz-adv-x="745" d="M133 0v1085h232v-213q97 230 314 230h15v-252h-12q-145 0 -231 -95.5t-86 -277.5v-477h-232z" />
<glyph unicode="s" horiz-adv-x="892" d="M61 109l78 176q162 -115 310 -115q70 0 110.5 31.5t40.5 87.5q0 12 -3 23.5t-10 21.5t-13.5 18t-21.5 18.5t-24.5 16.5t-30 16.5t-31.5 16.5t-38 18.5t-39 18.5q-70 33 -111.5 56.5t-89 63t-70 92t-22.5 117.5q0 145 100.5 230.5t256.5 85.5q178 0 331 -96l-69 -181 q-145 86 -264 86q-63 0 -100.5 -29.5t-37.5 -78.5q0 -12 3 -22.5t10.5 -20.5t13.5 -17.5t20.5 -17.5t23.5 -16.5t30.5 -17.5t33 -17t38 -19.5t38.5 -19.5q74 -37 114 -61.5t87 -64.5t68.5 -90t21.5 -116q0 -152 -103.5 -237.5t-265.5 -85.5q-209 0 -385 129z" />
<glyph unicode="t" horiz-adv-x="737" d="M61 887v198h117v293h234v-293h245v-198h-245v-578q0 -119 116 -119q66 0 125 31v-190q-77 -47 -192 -47q-283 0 -283 280v623h-117z" />
<glyph unicode="u" horiz-adv-x="1122" d="M123 360v725h233v-661q0 -113 51.5 -174.5t141.5 -61.5q92 0 149.5 64.5t57.5 175.5v657h233v-1085h-233v158q-117 -178 -297 -178q-158 0 -247 102t-89 278z" />
<glyph unicode="v" horiz-adv-x="1075" d="M49 1085h244l246 -788l247 788h240l-381 -1091h-215z" />
<glyph unicode="w" horiz-adv-x="1560" d="M57 1085h238l184 -733l203 735h199l200 -735l189 733h233l-307 -1091h-213l-203 723l-207 -723h-211z" />
<glyph unicode="x" horiz-adv-x="1048" d="M53 0l340 553l-327 532h249l211 -358l213 358h242l-328 -528l342 -557h-250l-225 381l-223 -381h-244z" />
<glyph unicode="y" horiz-adv-x="1077" d="M47 1085h244l254 -804l243 804h240l-379 -1108q-53 -158 -128.5 -225t-198.5 -67q-121 0 -228 55l70 178q68 -37 133 -37q90 0 139 117z" />
<glyph unicode="z" horiz-adv-x="983" d="M88 0v160l530 733h-514v192h797v-159l-532 -733h532v-193h-813z" />
<glyph unicode="{" horiz-adv-x="880" d="M90 498v180h47q113 0 165 51t52 158q0 33 -11 102.5t-11 97.5q0 156 96 249.5t334 127.5l31 -153q-147 -37 -197.5 -89.5t-50.5 -156.5q0 -35 11 -103.5t11 -101.5q0 -215 -217 -272q217 -57 217 -273l-22 -202q0 -106 50.5 -158.5t197.5 -87.5l-31 -154 q-238 33 -334 126t-96 251q0 29 11 98.5t11 102.5q0 106 -51 156.5t-166 50.5h-47z" />
<glyph unicode="|" horiz-adv-x="622" d="M219 -244v1860h187v-1860h-187z" />
<glyph unicode="}" horiz-adv-x="882" d="M90 -133q147 35 198.5 87t51.5 159l-25 204q0 215 217 271q-217 61 -217 272q0 33 12.5 101.5t12.5 103.5q0 104 -51 156.5t-199 89.5l31 153q238 -35 334 -127t96 -252q0 -29 -10.5 -97t-10.5 -101q0 -106 51.5 -157.5t163.5 -51.5h48v-180h-48q-113 0 -164 -50.5 t-51 -156.5q0 -33 10.5 -102.5t10.5 -98.5q0 -158 -96.5 -251t-333.5 -126z" />
<glyph unicode="~" horiz-adv-x="923" d="M111 520q55 240 206 240q63 0 154 -45q86 -41 115 -41q37 0 57.5 23.5t40.5 76.5l129 -37q-53 -240 -207 -239q-59 0 -153 45q-82 39 -117 39t-55.5 -22.5t-40.5 -76.5z" />
<glyph unicode="&#xa1;" horiz-adv-x="563" d="M143 0v72l76 917h125l74 -917v-72h-275zM152 1161v273h260v-273h-260z" />
<glyph unicode="&#xa2;" horiz-adv-x="1015" d="M92 715v16q0 238 133 393.5t340 163.5l21 156h166l-23 -174q109 -29 203 -123l-105 -172q-68 66 -145 88l-96 -694h8q127 0 240 106l100 -156q-156 -160 -359 -159l-22 -172h-166l27 200q-145 55 -233.5 196.5t-88.5 330.5zM317 717q0 -236 146 -316l92 676 q-106 -10 -172 -105t-66 -237v-18z" />
<glyph unicode="&#xa3;" horiz-adv-x="1132" d="M106 0v152l144 45v383h-144v200h144v213q0 225 119 344q115 115 309 115q219 0 360 -166l-135 -168q-98 111 -215 111q-86 0 -137 -53q-61 -57 -62 -185v-211h420v-200h-420v-371h560v-209h-943z" />
<glyph unicode="&#xa4;" horiz-adv-x="1261" d="M84 467v166h145q-2 25 -2 76v14q0 59 2 88h-145v166h172q53 223 192.5 351t333.5 128q240 0 396 -199l-134 -161q-59 76 -119.5 110.5t-142.5 34.5q-98 0 -170.5 -68.5t-109.5 -195.5h379v-166h-410q-4 -27 -4 -86v-14q0 -51 2 -78h412v-166h-383q76 -274 297 -274 q135 0 260 151l127 -154q-168 -213 -400 -213q-201 0 -340 130.5t-190 359.5h-168z" />
<glyph unicode="&#xa5;" horiz-adv-x="1218" d="M35 1434h266l311 -609l316 609h258l-406 -725h275v-174h-332v-148h332v-174h-332v-213h-227v213h-330v174h330v148h-330v174h270z" />
<glyph unicode="&#xa6;" d="M0 0v1434h1024v-1434h-1024zM100 197l351 520l-351 520v-1040zM166 100h694l-348 523zM166 1331l346 -522l348 522h-694zM571 717l351 -520v1040z" />
<glyph unicode="&#xa7;" horiz-adv-x="1150" d="M96 723v2q0 178 209 242q-102 76 -102 192v2q0 133 99 212t271 79q229 0 385 -145l-96 -156q-137 117 -284 117q-76 0 -114 -28t-38 -71v-2q0 -45 54.5 -80.5t199.5 -80.5q207 -63 291 -127t84 -168v-2q0 -176 -207 -240q100 -74 100 -193v-2q0 -133 -100 -212.5 t-268 -79.5q-238 0 -400 149l99 156q150 -119 296 -119q72 0 111 26.5t39 71.5v2q0 49 -52 81t-202 79q-207 63 -291 126.5t-84 168.5zM309 752q0 -47 49.5 -83t182.5 -79q92 -29 157 -33q63 4 103.5 39t40.5 82v4q0 47 -50.5 83t-183.5 79q-88 29 -155 33 q-63 -4 -103.5 -39t-40.5 -82v-4z" />
<glyph unicode="&#xa8;" horiz-adv-x="1028" d="M211 1225v227h229v-227h-229zM588 1225v227h229v-227h-229z" />
<glyph unicode="&#xa9;" horiz-adv-x="1511" d="M92 705v20q0 307 191.5 519t474.5 212q281 0 471 -211t190 -518v-20q0 -307 -191.5 -518.5t-473.5 -211.5q-281 0 -471.5 210t-190.5 518zM168 702q0 -279 166 -466t420 -187t421.5 189.5t167.5 468.5v20q0 279 -165.5 468t-419.5 189q-256 0 -423 -190t-167 -469v-23z M426 719v8q0 176 98.5 287.5t249.5 111.5q137 0 238 -90l-68 -114q-86 72 -168 71q-90 0 -146.5 -71.5t-56.5 -192.5v-12q0 -119 57.5 -191.5t145.5 -72.5q84 0 174 75l68 -104q-109 -104 -252 -105q-145 0 -242.5 112t-97.5 288z" />
<glyph unicode="&#xaa;" horiz-adv-x="716" d="M100 594v108h496v-108h-496zM104 1008v6q0 94 58.5 143t156.5 49q66 0 134 -24v22q0 119 -127 119q-57 0 -150 -37l-26 111q100 45 196 45q117 0 177.5 -61.5t60.5 -176.5v-368h-133v71q-59 -82 -160 -82q-80 0 -133.5 48.5t-53.5 134.5zM238 1018q0 -90 92 -90 q53 0 88 30.5t35 79.5v58q-51 18 -107 18q-109 0 -108 -94v-2z" />
<glyph unicode="&#xab;" horiz-adv-x="1134" d="M78 532v17l315 450l178 -92l-254 -364l256 -365l-180 -94zM547 532v17l315 450l180 -92l-256 -364l256 -365l-180 -94z" />
<glyph unicode="&#xac;" horiz-adv-x="1208" d="M147 854v219h906v-573h-226v354h-680z" />
<glyph unicode="&#xad;" horiz-adv-x="780" d="M104 512v229h570v-229h-570z" />
<glyph unicode="&#xae;" horiz-adv-x="1511" d="M92 705v20q0 307 191.5 519t474.5 212q281 0 471 -211t190 -518v-20q0 -307 -191.5 -518.5t-473.5 -211.5q-281 0 -471.5 210t-190.5 518zM168 702q0 -279 166 -466t420 -187t421.5 189.5t167.5 468.5v20q0 279 -165.5 468t-419.5 189q-256 0 -423 -190t-167 -469v-23z M494 344v780h284q127 0 204 -64t77 -181v-5q0 -84 -43 -142t-115 -85l180 -303h-159l-164 272h-125v-272h-139zM633 739h141q66 0 105 35t39 96v2q0 63 -39 95t-107 32h-139v-260z" />
<glyph unicode="&#xaf;" horiz-adv-x="1028" d="M193 1233v172h643v-172h-643z" />
<glyph unicode="&#xb0;" horiz-adv-x="839" d="M115 1108v6q0 137 91 234.5t214 97.5t214 -97.5t91 -234.5v-6q0 -137 -91 -234.5t-214 -97.5t-214 97.5t-91 234.5zM258 1108q0 -86 46 -142.5t116 -56.5q68 0 116 56.5t48 142.5v6q0 86 -48.5 142.5t-115.5 56.5q-70 0 -116 -56.5t-46 -142.5v-6z" />
<glyph unicode="&#xb1;" horiz-adv-x="1208" d="M131 694v217h361v295h227v-295h354v-217h-354v-295h-227v295h-361zM139 51v207h930v-207h-930z" />
<glyph unicode="&#xb2;" d="M0 0v1434h1024v-1434h-1024zM100 197l351 520l-351 520v-1040zM166 100h694l-348 523zM166 1331l346 -522l348 522h-694zM571 717l351 -520v1040z" />
<glyph unicode="&#xb3;" d="M0 0v1434h1024v-1434h-1024zM100 197l351 520l-351 520v-1040zM166 100h694l-348 523zM166 1331l346 -522l348 522h-694zM571 717l351 -520v1040z" />
<glyph unicode="&#xb4;" horiz-adv-x="1028" d="M334 1214l205 334l204 -94l-239 -240h-170z" />
<glyph unicode="&#xb5;" horiz-adv-x="1136" d="M133 -309v1394h234v-626q0 -121 52 -199t142 -78q109 0 160 86t51 236v581h232v-1085h-232v160q-41 -74 -112.5 -120t-163.5 -46q-88 0 -129 49v-352h-234z" />
<glyph unicode="&#xb6;" horiz-adv-x="1015" d="M68 963v2q0 221 145 345t381 124h268v-1434h-239v494h-27q-233 4 -380.5 125.5t-147.5 343.5z" />
<glyph unicode="&#xb7;" horiz-adv-x="520" d="M129 492v270h262v-270h-262z" />
<glyph unicode="&#xb8;" horiz-adv-x="1028" d="M281 -238l182 263h166l-146 -344z" />
<glyph unicode="&#xb9;" d="M0 0v1434h1024v-1434h-1024zM100 197l351 520l-351 520v-1040zM166 100h694l-348 523zM166 1331l346 -522l348 522h-694zM571 717l351 -520v1040z" />
<glyph unicode="&#xba;" horiz-adv-x="716" d="M88 1128v11q0 131 77 218t193.5 87t193.5 -87t77 -218v-9q0 -133 -77 -220t-196 -87q-117 0 -192.5 86t-75.5 219zM98 594v108h518v-108h-518zM221 1128q0 -80 38 -133t99.5 -53t98.5 52t37 134v11q0 80 -38 133t-99.5 53t-98.5 -52t-37 -132v-13z" />
<glyph unicode="&#xbb;" horiz-adv-x="1134" d="M90 176l260 365l-258 362l178 96l318 -450v-17l-318 -448zM561 176l258 365l-258 362l180 96l316 -450v-17l-316 -448z" />
<glyph unicode="&#xbc;" d="M0 0v1434h1024v-1434h-1024zM100 197l351 520l-351 520v-1040zM166 100h694l-348 523zM166 1331l346 -522l348 522h-694zM571 717l351 -520v1040z" />
<glyph unicode="&#xbd;" d="M0 0v1434h1024v-1434h-1024zM100 197l351 520l-351 520v-1040zM166 100h694l-348 523zM166 1331l346 -522l348 522h-694zM571 717l351 -520v1040z" />
<glyph unicode="&#xbe;" d="M0 0v1434h1024v-1434h-1024zM100 197l351 520l-351 520v-1040zM166 100h694l-348 523zM166 1331l346 -522l348 522h-694zM571 717l351 -520v1040z" />
<glyph unicode="&#xbf;" horiz-adv-x="972" d="M74 383v8q0 319 364 402l21 196h153l35 -340l-8 -10q-332 -31 -332 -242v-4q0 -86 60.5 -139t160.5 -53q156 0 289 129l107 -170q-170 -176 -410 -176q-199 0 -319.5 109.5t-120.5 289.5zM406 1163v271h262v-271h-262z" />
<glyph unicode="&#xc0;" horiz-adv-x="1380" d="M51 0l524 1442h230l524 -1442h-246l-120 338h-553l-121 -338h-238zM379 1780l205 94l204 -334h-170zM481 549h408l-203 575z" />
<glyph unicode="&#xc1;" horiz-adv-x="1380" d="M51 0l524 1442h230l524 -1442h-246l-120 338h-553l-121 -338h-238zM481 549h408l-203 575zM588 1540l205 334l204 -94l-239 -240h-170z" />
<glyph unicode="&#xc2;" horiz-adv-x="1380" d="M51 0l524 1442h230l524 -1442h-246l-120 338h-553l-121 -338h-238zM375 1540l211 299h209l211 -299h-177l-141 156l-141 -156h-172zM481 549h408l-203 575z" />
<glyph unicode="&#xc3;" horiz-adv-x="1380" d="M51 0l524 1442h230l524 -1442h-246l-120 338h-553l-121 -338h-238zM336 1563q55 238 207 237q72 0 162 -47q68 -37 108 -37q35 0 56.5 22.5t39.5 78.5l129 -41q-53 -238 -207 -238q-59 0 -165 49q-70 37 -103 37q-37 0 -56.5 -22.5t-41.5 -77.5zM481 549h408l-203 575z " />
<glyph unicode="&#xc4;" horiz-adv-x="1380" d="M51 0l524 1442h230l524 -1442h-246l-120 338h-553l-121 -338h-238zM387 1550v228h229v-228h-229zM481 549h408l-203 575zM764 1550v228h229v-228h-229z" />
<glyph unicode="&#xc5;" horiz-adv-x="1380" d="M49 0l510 1397q-94 63 -94 178v4q0 92 67.5 158.5t157.5 66.5t157.5 -66.5t67.5 -158.5v-4q0 -113 -94 -178l508 -1397h-246l-120 338h-555l-119 -338h-240zM481 549h408l-203 575zM573 1575q0 -49 34 -86t83 -37t83 37t34 86v4q0 49 -34 86t-83 37t-83 -37t-34 -86v-4z " />
<glyph unicode="&#xc6;" horiz-adv-x="1830" d="M20 0l674 1434h1030v-215h-634v-390h561v-215h-561v-399h645v-215h-881v338h-436l-158 -338h-240zM514 549h340v668h-35z" />
<glyph unicode="&#xc7;" horiz-adv-x="1263" d="M102 707v18q0 322 180.5 525.5t458.5 203.5q256 0 439 -166l-113 -192q-158 137 -322 137q-174 0 -284.5 -138.5t-110.5 -367.5v-18q0 -231 110.5 -369.5t287.5 -138.5q96 0 170.5 34.5t158.5 108.5l113 -174q-182 -178 -418 -188l-127 -301l-203 81l160 232 q-223 45 -361.5 237.5t-138.5 475.5z" />
<glyph unicode="&#xc8;" horiz-adv-x="1163" d="M158 0v1434h901v-215h-666v-390h590v-215h-590v-399h674v-215h-909zM328 1780l204 94l205 -334h-170z" />
<glyph unicode="&#xc9;" horiz-adv-x="1163" d="M158 0v1434h901v-215h-666v-390h590v-215h-590v-399h674v-215h-909zM473 1540l205 334l205 -94l-240 -240h-170z" />
<glyph unicode="&#xca;" horiz-adv-x="1163" d="M158 0v1434h901v-215h-666v-390h590v-215h-590v-399h674v-215h-909zM285 1542l211 299h209l210 -299h-176l-141 156l-141 -156h-172z" />
<glyph unicode="&#xcb;" horiz-adv-x="1163" d="M158 0v1434h901v-215h-666v-390h590v-215h-590v-399h674v-215h-909zM301 1550v228h229v-228h-229zM678 1550v228h229v-228h-229z" />
<glyph unicode="&#xcc;" horiz-adv-x="575" d="M-29 1780l205 94l205 -334h-170zM168 0v1434h238v-1434h-238z" />
<glyph unicode="&#xcd;" horiz-adv-x="575" d="M168 0v1434h238v-1434h-238zM190 1540l205 334l205 -94l-240 -240h-170z" />
<glyph unicode="&#xce;" horiz-adv-x="575" d="M-27 1542l211 299h209l211 -299h-176l-141 156l-142 -156h-172zM168 0v1434h238v-1434h-238z" />
<glyph unicode="&#xcf;" horiz-adv-x="575" d="M-14 1550v228h229v-228h-229zM168 0v1434h238v-1434h-238zM362 1550v228h230v-228h-230z" />
<glyph unicode="&#xd0;" horiz-adv-x="1433" d="M74 612v215h139v607h436q303 0 491.5 -197t188.5 -512v-14q0 -317 -188.5 -514t-491.5 -197h-436v612h-139zM446 215h209q193 0 310.5 132.5t117.5 361.5v12q0 229 -118.5 362.5t-311.5 133.5h-207v-390h295v-215h-295v-397z" />
<glyph unicode="&#xd1;" horiz-adv-x="1394" d="M158 0v1434h219l629 -955v955h233v-1434h-203l-647 985v-985h-231zM350 1563q55 238 207 237q72 0 162 -47q68 -37 108 -37q35 0 56.5 22.5t40.5 78.5l129 -41q-53 -238 -207 -238q-59 0 -166 49q-70 37 -102 37q-37 0 -56.5 -22.5t-42.5 -77.5z" />
<glyph unicode="&#xd2;" horiz-adv-x="1474" d="M102 705v20q0 319 178.5 525t458.5 206q279 0 455 -203.5t176 -523.5v-20q0 -319 -178 -525.5t-456.5 -206.5t-456 204t-177.5 524zM350 709q0 -231 108.5 -371.5t280.5 -140.5t279.5 139t107.5 369v20q0 231 -109.5 371.5t-281.5 140.5q-170 0 -277.5 -139.5 t-107.5 -368.5v-20zM408 1780l204 94l205 -334h-170z" />
<glyph unicode="&#xd3;" horiz-adv-x="1474" d="M102 705v20q0 319 178.5 525t458.5 206q279 0 455 -203.5t176 -523.5v-20q0 -319 -178 -525.5t-456.5 -206.5t-456 204t-177.5 524zM350 709q0 -231 108.5 -371.5t280.5 -140.5t279.5 139t107.5 369v20q0 231 -109.5 371.5t-281.5 140.5q-170 0 -277.5 -139.5 t-107.5 -368.5v-20zM647 1540l205 334l205 -94l-240 -240h-170z" />
<glyph unicode="&#xd4;" horiz-adv-x="1474" d="M102 705v20q0 319 178.5 525t458.5 206q279 0 455 -203.5t176 -523.5v-20q0 -319 -178 -525.5t-456.5 -206.5t-456 204t-177.5 524zM350 709q0 -231 108.5 -371.5t280.5 -140.5t279.5 139.5t107.5 368.5v20q0 231 -109.5 371.5t-281.5 140.5q-170 0 -277.5 -139.5 t-107.5 -368.5v-20zM422 1542l211 299h209l211 -299h-176l-142 156l-141 -156h-172z" />
<glyph unicode="&#xd5;" horiz-adv-x="1474" d="M102 705v20q0 319 178.5 525t458.5 206q279 0 455 -203.5t176 -523.5v-20q0 -319 -178 -525.5t-456.5 -206.5t-456 204t-177.5 524zM350 709q0 -231 108.5 -371.5t280.5 -140.5t279.5 139t107.5 369v20q0 231 -109.5 371.5t-281.5 140.5q-170 0 -277.5 -139.5 t-107.5 -368.5v-20zM385 1563q55 238 207 237q72 0 162 -47q68 -37 108 -37q35 0 56.5 22.5t39.5 78.5l129 -41q-53 -238 -206 -238q-59 0 -166 49q-70 37 -103 37q-37 0 -56 -22.5t-42 -77.5z" />
<glyph unicode="&#xd6;" horiz-adv-x="1474" d="M102 705v20q0 319 178.5 525t458.5 206q279 0 455 -203.5t176 -523.5v-20q0 -319 -178 -525.5t-456.5 -206.5t-456 204t-177.5 524zM350 709q0 -231 108.5 -371.5t280.5 -140.5t279.5 139t107.5 369v20q0 231 -109.5 371.5t-281.5 140.5q-170 0 -277.5 -139.5 t-107.5 -368.5v-20zM434 1550v228h230v-228h-230zM811 1550v228h229v-228h-229z" />
<glyph unicode="&#xd7;" d="M0 0v1434h1024v-1434h-1024zM100 197l351 520l-351 520v-1040zM166 100h694l-348 523zM166 1331l346 -522l348 522h-694zM571 717l351 -520v1040z" />
<glyph unicode="&#xd8;" horiz-adv-x="1474" d="M96 -10l164 213q-158 203 -158 502v18q0 319 179.5 526t457.5 207q201 0 353 -117l79 105h213l-170 -223q156 -199 156 -496v-16q0 -319 -178 -525.5t-457 -206.5q-201 0 -350 109l-78 -96h-211zM344 709q0 -158 72 -281l538 717q-90 96 -219 96q-174 0 -282.5 -142.5 t-108.5 -373.5v-16zM520 279q90 -90 219 -91q172 0 281.5 144t109.5 373v18q0 150 -71 270z" />
<glyph unicode="&#xd9;" horiz-adv-x="1341" d="M139 547v887h236v-887q0 -170 78.5 -260t218 -90t217.5 88t78 256v893h235v-881q0 -281 -143.5 -427t-389 -146t-388 145t-142.5 422zM358 1774l205 94l205 -334h-170z" />
<glyph unicode="&#xda;" horiz-adv-x="1341" d="M139 547v887h236v-887q0 -170 78.5 -260t218 -90t217.5 88t78 256v893h235v-881q0 -281 -143.5 -427t-389 -146t-388 145t-142.5 422zM571 1534l205 334l205 -94l-240 -240h-170z" />
<glyph unicode="&#xdb;" horiz-adv-x="1341" d="M139 547v887h236v-887q0 -170 78.5 -260t218 -90t217.5 88t78 256v893h235v-881q0 -281 -143.5 -427t-389 -146t-388 145t-142.5 422zM356 1540l211 299h209l211 -299h-176l-141 156l-142 -156h-172z" />
<glyph unicode="&#xdc;" horiz-adv-x="1341" d="M139 547v887h236v-887q0 -170 78.5 -260t218 -90t217.5 88t78 256v893h235v-881q0 -281 -143.5 -427t-389 -146t-388 145t-142.5 422zM369 1548v228h229v-228h-229zM745 1548v228h230v-228h-230z" />
<glyph unicode="&#xdd;" horiz-adv-x="1257" d="M29 1434h270l332 -619l334 619h262l-479 -861v-573h-238v571zM537 1534l204 334l205 -94l-239 -240h-170z" />
<glyph unicode="&#xde;" horiz-adv-x="1198" d="M156 0v1434h237v-222h225q229 0 369.5 -128t140.5 -351q0 -231 -149.5 -359t-380.5 -130h-205v-244h-237zM393 457h211q131 0 208 73.5t77 196.5q0 131 -76 199.5t-207 68.5h-213v-538z" />
<glyph unicode="&#xdf;" horiz-adv-x="1130" d="M133 0v1030q0 213 119 337t321 124q184 0 292 -104.5t108 -266.5v-4q0 -229 -211 -350q283 -98 282 -360v-5q0 -193 -135 -301t-370 -104v182q133 6 203.5 65.5t70.5 164.5v2q0 98 -72.5 160.5t-201.5 80.5v162q205 98 204 281v4q0 88 -49 140t-131 52q-90 0 -144 -67.5 t-54 -184.5v-1038h-232z" />
<glyph unicode="&#xe0;" horiz-adv-x="1056" d="M70 309v13q0 170 105.5 259t283.5 89q133 0 250 -43v43q0 223 -238 223q-125 0 -272 -62l-45 191q164 76 352 76q211 0 320.5 -108.5t109.5 -315.5v-674h-227v133q-113 -154 -303 -153q-141 0 -238.5 89t-97.5 240zM217 1454l205 94l205 -334h-170zM297 322 q0 -80 49 -124t129 -44q102 0 169 58t67 150v111q-88 39 -203 39q-100 0 -155.5 -47t-55.5 -131v-12z" />
<glyph unicode="&#xe1;" horiz-adv-x="1056" d="M70 309v13q0 170 105.5 259t283.5 89q133 0 250 -43v43q0 223 -238 223q-125 0 -272 -62l-45 191q164 76 352 76q211 0 320.5 -108.5t109.5 -315.5v-674h-227v133q-113 -153 -303 -153q-141 0 -238.5 89t-97.5 240zM297 322q0 -80 49 -124t129 -44q102 0 169 58t67 150 v111q-88 39 -203 39q-100 0 -155.5 -47t-55.5 -131v-12zM412 1214l204 334l205 -94l-239 -240h-170z" />
<glyph unicode="&#xe2;" horiz-adv-x="1056" d="M70 309v13q0 170 105.5 259t283.5 89q133 0 250 -43v43q0 223 -238 223q-125 0 -272 -62l-45 191q164 76 352 76q211 0 320.5 -108.5t109.5 -315.5v-674h-227v133q-113 -153 -303 -153q-141 0 -238.5 89t-97.5 240zM211 1217l211 299h209l211 -299h-176l-142 155 l-141 -155h-172zM297 322q0 -80 49 -124t129 -44q102 0 169 58t67 150v111q-88 39 -203 39q-100 0 -155.5 -47t-55.5 -131v-12z" />
<glyph unicode="&#xe3;" horiz-adv-x="1056" d="M70 309v13q0 170 105.5 259t283.5 89q133 0 250 -43v43q0 223 -238 223q-125 0 -272 -62l-45 191q164 76 352 76q211 0 320.5 -108.5t109.5 -315.5v-674h-227v133q-113 -153 -303 -153q-141 0 -238.5 89t-97.5 240zM176 1237q55 238 207 238q72 0 162 -48q68 -37 108 -36 q35 0 56.5 22.5t40.5 77.5l129 -41q-53 -238 -207 -238q-59 0 -166 50q-70 37 -103 36q-37 0 -56 -22.5t-42 -77.5zM297 322q0 -80 49 -124t129 -44q102 0 169 58t67 150v111q-88 39 -203 39q-100 0 -155.5 -47t-55.5 -131v-12z" />
<glyph unicode="&#xe4;" horiz-adv-x="1056" d="M70 309v13q0 170 105.5 259t283.5 89q133 0 250 -43v43q0 223 -238 223q-125 0 -272 -62l-45 191q164 76 352 76q211 0 320.5 -108.5t109.5 -315.5v-674h-227v133q-113 -154 -303 -153q-141 0 -238.5 89t-97.5 240zM221 1225v227h230v-227h-230zM297 322q0 -80 49 -124 t129 -44q102 0 169 58t67 150v111q-88 39 -203 39q-100 0 -155.5 -47t-55.5 -131v-12zM598 1225v227h229v-227h-229z" />
<glyph unicode="&#xe5;" horiz-adv-x="1056" d="M70 309v13q0 170 105.5 259t283.5 89q133 0 250 -43v43q0 223 -238 223q-125 0 -272 -62l-45 191q164 76 352 76q211 0 320.5 -108.5t109.5 -315.5v-674h-227v133q-113 -154 -303 -153q-141 0 -238.5 89t-97.5 240zM297 322q0 -80 49 -124t129 -44q102 0 169 58t67 150 v111q-88 39 -203 39q-100 0 -155.5 -47t-55.5 -131v-12zM297 1427v7q0 92 66.5 157.5t158.5 65.5q90 0 156.5 -65.5t66.5 -157.5v-7q0 -90 -66.5 -155.5t-156.5 -65.5t-157.5 65.5t-67.5 155.5zM403 1430q0 -49 35 -86t84 -37t83 37t34 86v4q0 49 -34 85.5t-83 36.5 t-84 -36.5t-35 -85.5v-4z" />
<glyph unicode="&#xe6;" horiz-adv-x="1697" d="M70 313v11q0 168 104.5 257t282.5 89q129 0 248 -43v43q0 223 -236 223q-123 0 -270 -62l-45 191q168 76 350 76q248 0 338 -164q121 170 325 170q213 0 332 -159t119 -410l-2 -82h-686q16 -135 91 -207t185 -72q139 0 264 113l105 -146q-154 -164 -379 -164 q-244 0 -381 195q-166 -192 -387 -192q-158 0 -258 89t-100 244zM297 326q0 -80 49 -125t129 -45q150 0 268 151q-27 72 -32 168q-102 37 -205 37q-100 0 -154.5 -46t-54.5 -132v-8zM928 614h463q-10 135 -68.5 216t-159.5 81q-96 0 -159.5 -79t-75.5 -218z" />
<glyph unicode="&#xe7;" horiz-adv-x="995" d="M84 530v19q0 242 141.5 398.5t354.5 156.5q205 0 344 -139l-107 -177q-113 109 -233 109q-115 0 -191 -95t-76 -249v-21q0 -158 77 -252t200 -94q121 0 233 107l103 -162q-131 -139 -312 -151l-129 -299l-202 81l164 234q-164 41 -265.5 186.5t-101.5 347.5z" />
<glyph unicode="&#xe8;" horiz-adv-x="1083" d="M82 530v17q0 244 132 400.5t335 156.5q215 0 333.5 -158.5t118.5 -410.5l-2 -82h-684q16 -135 91 -207t184 -72q143 0 262 113l109 -146q-154 -164 -379 -164q-215 0 -357.5 152t-142.5 401zM229 1454l205 94l205 -334h-170zM313 614h461q-8 133 -67.5 215t-157.5 82 q-96 0 -159.5 -78.5t-76.5 -218.5z" />
<glyph unicode="&#xe9;" horiz-adv-x="1083" d="M82 530v17q0 244 132 400.5t335 156.5q215 0 333.5 -159t118.5 -410q0 -55 -2 -82h-684q16 -135 91 -207t184 -72q143 0 262 113l109 -146q-154 -164 -379 -164q-215 0 -357.5 152t-142.5 401zM313 614h461q-8 133 -67.5 215t-157.5 82q-96 0 -160 -79t-76 -218z M444 1214l205 334l205 -94l-240 -240h-170z" />
<glyph unicode="&#xea;" horiz-adv-x="1083" d="M82 530v17q0 244 132 400.5t335 156.5q215 0 333.5 -159t118.5 -410q0 -55 -2 -82h-684q16 -135 91 -207t184 -72q143 0 262 113l109 -146q-154 -164 -379 -164q-215 0 -357.5 152t-142.5 401zM233 1217l211 299h209l211 -299h-176l-141 155l-141 -155h-173zM313 614h461 q-8 133 -67.5 215t-157.5 82q-96 0 -160 -79t-76 -218z" />
<glyph unicode="&#xeb;" horiz-adv-x="1083" d="M82 530v17q0 244 132 400.5t335 156.5q215 0 333.5 -158.5t118.5 -410.5l-2 -82h-684q16 -135 91 -207t184 -72q143 0 262 113l109 -146q-154 -164 -379 -164q-215 0 -357.5 152t-142.5 401zM246 1225v227h229v-227h-229zM313 614h461q-8 133 -67.5 215t-157.5 82 q-96 0 -159.5 -78.5t-76.5 -218.5zM623 1225v227h229v-227h-229z" />
<glyph unicode="&#xec;" horiz-adv-x="522" d="M-53 1454l205 94l204 -334h-170zM143 0v1085h234v-1085h-234z" />
<glyph unicode="&#xed;" horiz-adv-x="522" d="M143 0v1085h234v-1085h-234zM162 1214l205 334l204 -94l-239 -240h-170z" />
<glyph unicode="&#xee;" horiz-adv-x="522" d="M-53 1217l211 299h209l211 -299h-177l-141 155l-141 -155h-172zM143 0v1085h234v-1085h-234z" />
<glyph unicode="&#xef;" horiz-adv-x="522" d="M-41 1225v227h229v-227h-229zM143 0v1085h234v-1085h-234zM336 1225v227h229v-227h-229z" />
<glyph unicode="&#xf0;" horiz-adv-x="1146" d="M84 494v8q0 215 116.5 348t288.5 133q131 0 248 -86l-184 279l-217 -105l-90 131l225 105l-109 172h254l48 -82l180 84l90 -131l-189 -86l156 -246q158 -254 158 -500v-8q0 -231 -136.5 -382t-359.5 -151q-207 0 -343 145.5t-136 371.5zM313 489q0 -139 73 -226 t187.5 -87t185 87t70.5 226v9q0 139 -73.5 224t-188 85t-184.5 -84t-70 -225v-9z" />
<glyph unicode="&#xf1;" horiz-adv-x="1122" d="M133 0v1085h232v-159q119 180 297 180q160 0 248.5 -103.5t88.5 -277.5v-725h-233v662q0 113 -50 174t-143 61q-94 0 -151 -65.5t-57 -176.5v-655h-232zM217 1237q55 238 207 238q72 0 162 -48q68 -37 108 -36q35 0 56.5 22.5t40.5 77.5l129 -41q-53 -238 -207 -238 q-59 0 -166 50q-70 37 -103 36q-37 0 -56 -22.5t-42 -77.5z" />
<glyph unicode="&#xf2;" horiz-adv-x="1173" d="M84 530v19q0 240 143.5 397.5t360.5 157.5q215 0 357 -156.5t142 -396.5v-19q0 -240 -143 -397.5t-360 -157.5q-215 0 -357.5 157t-142.5 396zM264 1454l205 94l205 -334h-170zM315 532q0 -152 77 -252t196 -100q121 0 194.5 98t73.5 250v21q0 154 -77 253t-195 99 q-121 0 -195 -97t-74 -251v-21z" />
<glyph unicode="&#xf3;" horiz-adv-x="1173" d="M84 530v19q0 240 143.5 397.5t360.5 157.5q215 0 357 -156.5t142 -396.5v-19q0 -240 -143 -397.5t-360 -157.5q-215 0 -357.5 157t-142.5 396zM315 532q0 -152 77 -252t196 -100q121 0 194.5 98.5t73.5 249.5v21q0 154 -77 253t-195 99q-121 0 -195 -97t-74 -251v-21z M498 1214l204 334l205 -94l-239 -240h-170z" />
<glyph unicode="&#xf4;" horiz-adv-x="1173" d="M84 530v19q0 240 143.5 397.5t360.5 157.5q215 0 357 -156.5t142 -396.5v-19q0 -240 -143 -397.5t-360 -157.5q-215 0 -357.5 157t-142.5 396zM270 1217l211 299h209l211 -299h-176l-141 155l-142 -155h-172zM315 532q0 -152 77 -252t196 -100q121 0 194.5 98.5 t73.5 249.5v21q0 154 -77 253t-195 99q-121 0 -195 -97t-74 -251v-21z" />
<glyph unicode="&#xf5;" horiz-adv-x="1173" d="M84 530v19q0 240 143.5 397.5t360.5 157.5q215 0 357 -156.5t142 -396.5v-19q0 -240 -143 -397.5t-360 -157.5q-215 0 -357.5 157t-142.5 396zM233 1237q55 238 207 238q72 0 162 -48q68 -37 109 -36q35 0 56 22.5t40 77.5l129 -41q-53 -238 -207 -238q-59 0 -166 50 q-70 37 -102 36q-37 0 -56.5 -22.5t-42.5 -77.5zM315 532q0 -152 77 -252t196 -100q121 0 194.5 98.5t73.5 249.5v21q0 154 -77 253t-195 99q-121 0 -195 -97t-74 -251v-21z" />
<glyph unicode="&#xf6;" horiz-adv-x="1173" d="M84 530v19q0 240 143.5 397.5t360.5 157.5q215 0 357 -156.5t142 -396.5v-19q0 -240 -143 -397.5t-360 -157.5q-215 0 -357.5 157t-142.5 396zM283 1225v227h229v-227h-229zM315 532q0 -152 77 -252t196 -100q121 0 194.5 98t73.5 250v21q0 154 -77 253t-195 99 q-121 0 -195 -97t-74 -251v-21zM659 1225v227h230v-227h-230z" />
<glyph unicode="&#xf7;" horiz-adv-x="1208" d="M156 612v219h897v-219h-897zM496 199v250h241v-250h-241zM496 995v250h241v-250h-241z" />
<glyph unicode="&#xf8;" horiz-adv-x="1173" d="M59 -10l140 176q-115 150 -115 364v15q0 242 143.5 400.5t360.5 158.5q152 0 268 -84l62 76h194l-141 -181q116 -149 116 -366v-17q0 -240 -143 -397.5t-360 -157.5q-145 0 -271 82l-59 -69h-195zM307 532q0 -90 41 -167l381 483q-61 57 -145 57q-121 0 -199 -100 t-78 -256v-17zM442 231q61 -57 146 -57q121 0 198.5 100t77.5 254v19q0 92 -41 170z" />
<glyph unicode="&#xf9;" horiz-adv-x="1122" d="M123 360v725h233v-661q0 -113 51.5 -174.5t141.5 -61.5q92 0 149.5 64.5t57.5 175.5v657h233v-1085h-233v158q-117 -178 -297 -178q-158 0 -247 102t-89 278zM254 1452l205 94l205 -334h-170z" />
<glyph unicode="&#xfa;" horiz-adv-x="1122" d="M123 360v725h233v-661q0 -113 51.5 -174.5t141.5 -61.5q92 0 149.5 64.5t57.5 175.5v657h233v-1085h-233v158q-117 -178 -297 -178q-158 0 -247 102t-89 278zM453 1212l204 334l205 -94l-239 -240h-170z" />
<glyph unicode="&#xfb;" horiz-adv-x="1122" d="M123 360v725h233v-661q0 -113 51.5 -174.5t141.5 -61.5q92 0 149.5 64.5t57.5 175.5v657h233v-1085h-233v158q-117 -178 -297 -178q-158 0 -247 102t-89 278zM246 1217l211 299h209l211 -299h-177l-141 155l-141 -155h-172z" />
<glyph unicode="&#xfc;" horiz-adv-x="1122" d="M123 360v725h233v-661q0 -113 51.5 -174.5t141.5 -61.5q92 0 149.5 64.5t57.5 175.5v657h233v-1085h-233v158q-117 -178 -297 -178q-158 0 -247 102t-89 278zM258 1225v227h229v-227h-229zM635 1225v227h229v-227h-229z" />
<glyph unicode="&#xfd;" horiz-adv-x="1077" d="M47 1085h244l254 -804l243 804h240l-379 -1108q-55 -158 -130 -225t-197 -67q-121 0 -228 55l70 178q68 -37 133 -37q90 0 139 117zM430 1212l205 334l205 -94l-240 -240h-170z" />
<glyph unicode="&#xfe;" horiz-adv-x="1196" d="M133 -309v1788h232v-568q129 195 317 195q176 0 301 -145.5t125 -405.5v-27q0 -260 -124 -404t-302 -144q-188 0 -317 184v-473h-232zM360 530q0 -156 76 -251t184.5 -95t181 94t72.5 254v19q0 158 -72.5 253t-181 95t-184.5 -96t-76 -252v-21z" />
<glyph unicode="&#xff;" horiz-adv-x="1077" d="M47 1085h244l254 -804l243 804h240l-379 -1108q-53 -158 -128.5 -225t-198.5 -67q-121 0 -228 55l70 178q68 -37 133 -37q90 0 139 117zM236 1225v227h229v-227h-229zM612 1225v227h230v-227h-230z" />
<glyph unicode="&#x152;" horiz-adv-x="1916" d="M102 709v12q0 315 188.5 514t491.5 199h1028v-215h-634v-390h559v-215h-559v-399h643v-215h-1037q-303 0 -491.5 195.5t-188.5 513.5zM350 711q0 -231 117 -363.5t309 -132.5h162v1002h-162q-193 0 -309.5 -131.5t-116.5 -360.5v-14z" />
<glyph unicode="&#x153;" horiz-adv-x="1849" d="M84 530v17q0 240 143.5 398.5t354.5 158.5q246 0 381 -213q121 213 356 213q213 0 331.5 -159t118.5 -410l-2 -82h-684q16 -135 91 -207t186 -72q141 0 262 113l104 -146q-154 -164 -378 -164q-125 0 -226.5 57.5t-160.5 160.5q-61 -102 -163 -160t-223 -58 q-207 0 -349 158t-142 395zM315 532q0 -154 76 -253t191 -99q119 0 191.5 97.5t72.5 252.5v19q0 154 -75 253t-191 99q-119 0 -192 -97t-73 -253v-19zM1079 614h463q-10 135 -68.5 216t-158.5 81q-96 0 -159 -79t-77 -218z" />
<glyph unicode="&#x178;" horiz-adv-x="1257" d="M29 1434h270l332 -619l334 619h262l-479 -861v-573h-238v571zM326 1548v228h229v-228h-229zM702 1548v228h230v-228h-230z" />
<glyph unicode="&#x2c6;" horiz-adv-x="1028" d="M199 1217l211 299h208l211 -299h-176l-141 155l-141 -155h-172z" />
<glyph unicode="&#x2dc;" horiz-adv-x="1028" d="M162 1237q55 238 207 238q72 0 161 -48q68 -37 109 -36q35 0 56.5 22.5t39.5 77.5l129 -41q-53 -238 -207 -238q-59 0 -165 50q-70 37 -103 36q-37 0 -56.5 -22.5t-41.5 -77.5z" />
<glyph unicode="&#x2000;" horiz-adv-x="937" />
<glyph unicode="&#x2001;" horiz-adv-x="1874" />
<glyph unicode="&#x2002;" horiz-adv-x="937" />
<glyph unicode="&#x2003;" horiz-adv-x="1874" />
<glyph unicode="&#x2004;" horiz-adv-x="624" />
<glyph unicode="&#x2005;" horiz-adv-x="468" />
<glyph unicode="&#x2006;" horiz-adv-x="312" />
<glyph unicode="&#x2007;" horiz-adv-x="312" />
<glyph unicode="&#x2008;" horiz-adv-x="234" />
<glyph unicode="&#x2009;" horiz-adv-x="374" />
<glyph unicode="&#x200a;" horiz-adv-x="104" />
<glyph unicode="&#x2010;" horiz-adv-x="780" d="M104 512v229h570v-229h-570z" />
<glyph unicode="&#x2011;" horiz-adv-x="780" d="M104 512v229h570v-229h-570z" />
<glyph unicode="&#x2012;" horiz-adv-x="780" d="M104 512v229h570v-229h-570z" />
<glyph unicode="&#x2013;" horiz-adv-x="1028" d="M104 516v221h818v-221h-818z" />
<glyph unicode="&#x2014;" horiz-adv-x="1685" d="M104 516v221h1475v-221h-1475z" />
<glyph unicode="&#x2018;" horiz-adv-x="512" d="M117 872v230q0 160 73.5 241.5t225.5 98.5l24 -99q-184 -39 -168 -198h105v-273h-260z" />
<glyph unicode="&#x2019;" horiz-adv-x="512" d="M72 965q184 39 168 198h-105v271h262v-228q0 -162 -74.5 -242.5t-226.5 -97.5z" />
<glyph unicode="&#x201a;" horiz-adv-x="524" d="M68 -197q184 39 172 197h-107v270h262v-227q0 -160 -74.5 -242t-230.5 -98z" />
<glyph unicode="&#x201c;" horiz-adv-x="950" d="M117 872v230q0 160 73.5 241.5t225.5 98.5l24 -99q-184 -39 -168 -198h105v-273h-260zM553 872v230q0 160 74.5 241.5t226.5 98.5l25 -99q-184 -39 -168 -198h104v-273h-262z" />
<glyph unicode="&#x201d;" horiz-adv-x="950" d="M72 965q184 39 168 198h-105v271h262v-228q0 -162 -74.5 -242.5t-226.5 -97.5zM510 965q184 39 168 198h-105v271h263v-228q0 -162 -75 -242.5t-226 -97.5z" />
<glyph unicode="&#x201e;" horiz-adv-x="966" d="M68 -197q184 39 172 197h-107v270h262v-227q0 -160 -74.5 -242t-230.5 -98zM508 -197q186 39 174 197h-107v270h263v-227q0 -160 -75 -242t-231 -98z" />
<glyph unicode="&#x2022;" horiz-adv-x="915" d="M193 717v10q0 123 75.5 203t188 80t189.5 -80t77 -203v-10q0 -123 -77 -203t-189.5 -80t-188 80t-75.5 203z" />
<glyph unicode="&#x2026;" horiz-adv-x="1540" d="M129 0v268h256v-268h-256zM641 0v268h258v-268h-258zM1155 0v268h256v-268h-256z" />
<glyph unicode="&#x202f;" horiz-adv-x="374" />
<glyph unicode="&#x2039;" horiz-adv-x="667" d="M82 532v17l313 450l180 -92l-256 -364l256 -365l-180 -94z" />
<glyph unicode="&#x203a;" horiz-adv-x="667" d="M90 176l260 365l-258 362l178 96l318 -450v-17l-318 -448z" />
<glyph unicode="&#x205f;" horiz-adv-x="468" />
<glyph unicode="&#x20ac;" horiz-adv-x="1261" d="M84 467v166h145q-2 25 -2 76v14q0 59 2 88h-145v166h172q53 223 192.5 351t333.5 128q240 0 396 -199l-134 -161q-59 76 -119.5 110.5t-142.5 34.5q-98 0 -170.5 -68.5t-109.5 -195.5h379v-166h-410q-4 -27 -4 -86v-14q0 -51 2 -78h412v-166h-383q76 -274 297 -274 q135 0 260 151l127 -154q-168 -213 -400 -213q-201 0 -340 130.5t-190 359.5h-168z" />
<glyph unicode="&#x2122;" horiz-adv-x="1247" d="M45 1325v109h440v-109h-159v-528h-119v528h-162zM602 797v637h127l158 -283l155 283h125v-637h-114v444l-164 -295h-8l-164 295v-444h-115z" />
<glyph unicode="&#x25fc;" horiz-adv-x="1085" d="M0 0v1085h1085v-1085h-1085z" />
</font>
</defs>
</svg>
